<svg width="15" height="15" viewBox="0 0 15 15" fill="none" xmlns="http://www.w3.org/2000/svg">
<ellipse cx="4.92614" cy="9.61981" rx="3.5" ry="3.46667" transform="rotate(-135 4.92614 9.61981)" stroke="#54C3FC" stroke-width="2"/>
<rect x="7.3833" y="8.40005" width="1.75" height="6.93333" rx="0.875" transform="rotate(-135 7.3833 8.40005)" fill="#54C3FC"/>
<path d="M11.2044 2.47482C11.683 2.47482 12.071 2.86284 12.071 3.34149V3.34149C12.071 3.82014 11.683 4.20816 11.2044 4.20816H7.82105C7.5449 4.20816 7.32105 3.9843 7.32105 3.70816V2.97482C7.32105 2.69868 7.5449 2.47482 7.82105 2.47482H11.2044Z" fill="#54C3FC"/>
<path d="M10.321 3.34149C10.321 2.86284 10.7091 2.47482 11.1877 2.47482V2.47482C11.6664 2.47482 12.0544 2.86284 12.0544 3.34149V6.72482C12.0544 7.00097 11.8305 7.22482 11.5544 7.22482H10.821C10.5449 7.22482 10.321 7.00097 10.321 6.72482V3.34149Z" fill="#54C3FC"/>
</svg>
