<svg width="21" height="20" viewBox="0 0 21 20" fill="none" xmlns="http://www.w3.org/2000/svg">
    <path
        d="M10.5 9C11.1922 9 11.8689 8.85338 12.4445 8.57867C13.0201 8.30397 13.4687 7.91352 13.7336 7.45671C13.9985 6.99989 14.0678 6.49723 13.9327 6.01227C13.7977 5.52732 13.4644 5.08186 12.9749 4.73223C12.4854 4.3826 11.8617 4.1445 11.1828 4.04804C10.5039 3.95157 9.80015 4.00108 9.16061 4.1903C8.52107 4.37952 7.97444 4.69995 7.58986 5.11107C7.20527 5.5222 7 6.00555 7 6.5"
        stroke="#0ae48f" stroke-width="2" />
    <path
        d="M10.5 9C9.80777 9 9.13108 9.14662 8.5555 9.42133C7.97993 9.69603 7.53133 10.0865 7.26642 10.5433C7.00151 11.0001 6.9322 11.5028 7.06725 11.9877C7.2023 12.4727 7.53564 12.9181 8.02513 13.2678C8.51461 13.6174 9.13825 13.8555 9.81718 13.952C10.4961 14.0484 11.1999 13.9989 11.8394 13.8097C12.4789 13.6205 13.0256 13.3 13.4101 12.8889C13.7947 12.4778 14 11.9945 14 11.5"
        stroke="#0ae48f" stroke-width="2" />
    <circle cx="10.5" cy="17" r="1.5" fill="#0ae48f" />
</svg>